<svg width="971" height="2105" viewBox="0 0 971 2105" fill="none" xmlns="http://www.w3.org/2000/svg">
<g clip-path="url(#clip0_111_9)">
<rect width="971" height="2104.59" fill="url(#paint0_linear_111_9)"/>
<g filter="url(#filter0_f_111_9)">
<ellipse cx="304.593" cy="387.109" rx="639.592" ry="639.592" transform="rotate(-90 304.593 387.109)" fill="url(#paint1_linear_111_9)"/>
</g>
<g filter="url(#filter1_f_111_9)">
<ellipse cx="792.758" cy="1935.26" rx="669.242" ry="669.242" transform="rotate(-90 792.758 1935.26)" fill="url(#paint2_linear_111_9)"/>
</g>
<g filter="url(#filter2_b_111_9)">
<circle cx="91.9801" cy="36.8709" r="365.754" transform="rotate(43.1328 91.9801 36.8709)" fill="url(#paint3_linear_111_9)" fill-opacity="0.28"/>
<circle cx="91.9801" cy="36.8709" r="363.528" transform="rotate(43.1328 91.9801 36.8709)" stroke="url(#paint4_linear_111_9)" stroke-opacity="0.3" stroke-width="4.45137"/>
</g>
<g filter="url(#filter3_b_111_9)">
<circle cx="906.246" cy="2167.93" r="365.754" transform="rotate(90 906.246 2167.93)" fill="url(#paint5_linear_111_9)" fill-opacity="0.28"/>
<circle cx="906.246" cy="2167.93" r="363.528" transform="rotate(90 906.246 2167.93)" stroke="url(#paint6_linear_111_9)" stroke-opacity="0.3" stroke-width="4.45137"/>
</g>
<g filter="url(#filter4_b_111_9)">
<path d="M938.591 -45.4766C938.859 -52.5059 932.841 -58.2105 925.999 -56.5775C913.736 -53.651 902.13 -48.3153 891.875 -40.834C878.028 -30.7322 867.153 -17.0907 860.392 -1.33988C853.631 14.4109 851.232 31.6908 853.448 48.6876C855.663 65.6845 862.41 81.7722 872.983 95.2638C883.555 108.755 897.563 119.154 913.537 125.369C929.512 131.584 946.864 133.386 963.774 130.587C980.685 127.788 996.531 120.491 1009.65 109.46C1016.67 103.561 1022.77 96.7093 1027.79 89.1366C1033.14 81.0723 1024.97 72.3942 1015.8 75.4816L948.898 98.0063C941.187 100.603 933.262 94.6773 933.571 86.5461L938.591 -45.4766Z" fill="url(#paint7_linear_111_9)" fill-opacity="0.22"/>
<path d="M892.218 -40.3644C902.411 -47.8001 913.946 -53.1033 926.134 -56.0121C932.544 -57.5419 938.265 -52.205 938.01 -45.4987L932.99 86.524C932.666 95.0618 940.986 101.283 949.084 98.5572L1015.99 76.0325C1020.36 74.5612 1024.45 75.9004 1026.81 78.5166C1029.15 81.117 1029.83 85.0108 1027.3 88.8153C1022.31 96.342 1016.25 103.152 1009.28 109.015C996.236 119.979 980.487 127.232 963.679 130.014C946.872 132.796 929.625 131.004 913.748 124.827C897.871 118.65 883.949 108.315 873.44 94.9053C862.932 81.4957 856.226 65.5059 854.024 48.6125C851.822 31.7191 854.206 14.5444 860.926 -1.11058C867.646 -16.7656 878.454 -30.3241 892.218 -40.3644Z" stroke="url(#paint8_linear_111_9)" stroke-opacity="0.6" stroke-width="1.16262"/>
</g>
<g filter="url(#filter5_b_111_9)">
<path d="M79.9487 2152.1C81.2044 2159.02 88.3112 2163.3 94.6399 2160.23C105.982 2154.72 116.163 2147.01 124.563 2137.49C135.904 2124.64 143.579 2108.97 146.783 2092.13C149.986 2075.29 148.6 2057.9 142.77 2041.79C136.939 2025.67 126.879 2011.41 113.645 2000.52C100.41 1989.63 84.4889 1982.5 67.55 1979.88C50.6111 1977.25 33.2788 1979.24 17.3705 1985.62C1.46219 1992 -12.436 2002.55 -22.8667 2016.15C-28.4455 2023.42 -32.9226 2031.43 -36.1922 2039.91C-39.674 2048.93 -29.8322 2055.65 -21.5437 2050.65L38.9257 2014.22C45.8957 2010.02 54.9122 2014.1 56.3648 2022.11L79.9487 2152.1Z" fill="url(#paint9_linear_111_9)" fill-opacity="0.22"/>
<path d="M124.127 2137.11C115.778 2146.57 105.659 2154.23 94.3861 2159.7C88.457 2162.58 81.7186 2158.6 80.5207 2152L56.9367 2022C55.4116 2013.6 45.9442 2009.32 38.6258 2013.73L-21.8437 2050.16C-25.7936 2052.54 -30.0755 2052.11 -32.9444 2050.06C-35.796 2048.03 -37.2924 2044.37 -35.6498 2040.12C-32.4001 2031.69 -27.9503 2023.73 -22.4054 2016.5C-12.0382 2002.98 1.77543 1992.5 17.5869 1986.16C33.3984 1979.82 50.6253 1977.84 67.4611 1980.45C84.2969 1983.06 100.121 1990.14 113.275 2000.97C126.429 2011.8 136.428 2025.96 142.223 2041.98C148.018 2058 149.396 2075.29 146.212 2092.02C143.028 2108.76 135.4 2124.33 124.127 2137.11Z" stroke="url(#paint10_linear_111_9)" stroke-opacity="0.6" stroke-width="1.16262"/>
</g>
</g>
<defs>
<filter id="filter0_f_111_9" x="-546.785" y="-464.268" width="1702.76" height="1702.76" filterUnits="userSpaceOnUse" color-interpolation-filters="sRGB">
<feFlood flood-opacity="0" result="BackgroundImageFix"/>
<feBlend mode="normal" in="SourceGraphic" in2="BackgroundImageFix" result="shape"/>
<feGaussianBlur stdDeviation="105.893" result="effect1_foregroundBlur_111_9"/>
</filter>
<filter id="filter1_f_111_9" x="-88.2699" y="1054.23" width="1762.06" height="1762.06" filterUnits="userSpaceOnUse" color-interpolation-filters="sRGB">
<feFlood flood-opacity="0" result="BackgroundImageFix"/>
<feBlend mode="normal" in="SourceGraphic" in2="BackgroundImageFix" result="shape"/>
<feGaussianBlur stdDeviation="105.893" result="effect1_foregroundBlur_111_9"/>
</filter>
<filter id="filter2_b_111_9" x="-422.154" y="-477.263" width="1028.27" height="1028.27" filterUnits="userSpaceOnUse" color-interpolation-filters="sRGB">
<feFlood flood-opacity="0" result="BackgroundImageFix"/>
<feGaussianBlur in="BackgroundImageFix" stdDeviation="74.1895"/>
<feComposite in2="SourceAlpha" operator="in" result="effect1_backgroundBlur_111_9"/>
<feBlend mode="normal" in="SourceGraphic" in2="effect1_backgroundBlur_111_9" result="shape"/>
</filter>
<filter id="filter3_b_111_9" x="392.113" y="1653.79" width="1028.27" height="1028.27" filterUnits="userSpaceOnUse" color-interpolation-filters="sRGB">
<feFlood flood-opacity="0" result="BackgroundImageFix"/>
<feGaussianBlur in="BackgroundImageFix" stdDeviation="74.1895"/>
<feComposite in2="SourceAlpha" operator="in" result="effect1_backgroundBlur_111_9"/>
<feBlend mode="normal" in="SourceGraphic" in2="effect1_backgroundBlur_111_9" result="shape"/>
</filter>
<filter id="filter4_b_111_9" x="813.893" y="-95.6129" width="254.351" height="266.236" filterUnits="userSpaceOnUse" color-interpolation-filters="sRGB">
<feFlood flood-opacity="0" result="BackgroundImageFix"/>
<feGaussianBlur in="BackgroundImageFix" stdDeviation="19.377"/>
<feComposite in2="SourceAlpha" operator="in" result="effect1_backgroundBlur_111_9"/>
<feBlend mode="normal" in="SourceGraphic" in2="effect1_backgroundBlur_111_9" result="shape"/>
</filter>
<filter id="filter5_b_111_9" x="-75.666" y="1940" width="262.886" height="259.993" filterUnits="userSpaceOnUse" color-interpolation-filters="sRGB">
<feFlood flood-opacity="0" result="BackgroundImageFix"/>
<feGaussianBlur in="BackgroundImageFix" stdDeviation="19.377"/>
<feComposite in2="SourceAlpha" operator="in" result="effect1_backgroundBlur_111_9"/>
<feBlend mode="normal" in="SourceGraphic" in2="effect1_backgroundBlur_111_9" result="shape"/>
</filter>
<linearGradient id="paint0_linear_111_9" x1="971" y1="0" x2="-2.39053e-05" y2="2105" gradientUnits="userSpaceOnUse">
<stop stop-color="#0087F5" stop-opacity="0.48"/>
<stop offset="1" stop-color="#00D4F5"/>
</linearGradient>
<linearGradient id="paint1_linear_111_9" x1="304.593" y1="-252.483" x2="304.593" y2="1026.7" gradientUnits="userSpaceOnUse">
<stop offset="0.00308138" stop-color="#0DCEE4" stop-opacity="0.36"/>
<stop offset="1" stop-color="#2F77F5" stop-opacity="0.66"/>
</linearGradient>
<linearGradient id="paint2_linear_111_9" x1="792.758" y1="1266.02" x2="792.758" y2="2604.5" gradientUnits="userSpaceOnUse">
<stop offset="0.00308138" stop-color="#0DCEE4" stop-opacity="0.36"/>
<stop offset="1" stop-color="#2F77F5" stop-opacity="0.66"/>
</linearGradient>
<linearGradient id="paint3_linear_111_9" x1="-273.774" y1="-328.883" x2="608.86" y2="17.1939" gradientUnits="userSpaceOnUse">
<stop stop-color="white" stop-opacity="0.8"/>
<stop offset="1" stop-color="white" stop-opacity="0.2"/>
</linearGradient>
<linearGradient id="paint4_linear_111_9" x1="-273.774" y1="-328.883" x2="608.86" y2="17.1939" gradientUnits="userSpaceOnUse">
<stop stop-color="white"/>
<stop offset="1" stop-color="white" stop-opacity="0"/>
</linearGradient>
<linearGradient id="paint5_linear_111_9" x1="540.492" y1="1802.17" x2="1423.13" y2="2148.25" gradientUnits="userSpaceOnUse">
<stop stop-color="white" stop-opacity="0.8"/>
<stop offset="1" stop-color="white" stop-opacity="0.2"/>
</linearGradient>
<linearGradient id="paint6_linear_111_9" x1="540.492" y1="1802.17" x2="1423.13" y2="2148.25" gradientUnits="userSpaceOnUse">
<stop stop-color="white"/>
<stop offset="1" stop-color="white" stop-opacity="0"/>
</linearGradient>
<linearGradient id="paint7_linear_111_9" x1="862.157" y1="140.516" x2="930.229" y2="-97.559" gradientUnits="userSpaceOnUse">
<stop stop-color="white" stop-opacity="0.8"/>
<stop offset="1" stop-color="white" stop-opacity="0.2"/>
</linearGradient>
<linearGradient id="paint8_linear_111_9" x1="862.157" y1="140.516" x2="930.229" y2="-97.559" gradientUnits="userSpaceOnUse">
<stop stop-color="white"/>
<stop offset="1" stop-color="white" stop-opacity="0"/>
</linearGradient>
<linearGradient id="paint9_linear_111_9" x1="114.452" y1="1954" x2="99.3515" y2="2201.15" gradientUnits="userSpaceOnUse">
<stop stop-color="#E3E3E3" stop-opacity="0.8"/>
<stop offset="1" stop-color="white" stop-opacity="0.2"/>
</linearGradient>
<linearGradient id="paint10_linear_111_9" x1="114.452" y1="1954" x2="99.3515" y2="2201.15" gradientUnits="userSpaceOnUse">
<stop stop-color="white"/>
<stop offset="1" stop-color="white" stop-opacity="0"/>
</linearGradient>
<clipPath id="clip0_111_9">
<rect width="971" height="2104.59" fill="white"/>
</clipPath>
</defs>
</svg>
